<?xml version="1.0" encoding="UTF-8"?>
<svg id="Layer_1" xmlns="http://www.w3.org/2000/svg" version="1.1" viewBox="0 0 76.4 91.9">
  <!-- Generator: Adobe Illustrator 29.0.0, SVG Export Plug-In . SVG Version: 2.1.0 Build 186)  -->
  <path fill="#FFFFFF" d="M55.9,85c1.6,1.6,1.6,4.2,0,5.8s-4.2,1.6-5.8,0l-8.8-8.8,5.8-5.8,8.8,8.8ZM45,74.1l-5.8,5.8-2.4-2.4c-.1-.1-.1-.4,0-.5l1-1-3.8-3.8c-3.3,2.6-7.4,4.1-11.9,4.1-10.7,0-19.3-8.6-19.3-19.3s8.6-19.3,19.3-19.3,19.3,8.6,19.3,19.3-1.5,8.6-4.1,11.9l3.8,3.8,1-1c.1-.1.4-.1.5,0l2.4,2.4ZM36.7,56.9c0-8-6.5-14.6-14.6-14.6s-14.6,6.5-14.6,14.6,6.5,14.6,14.6,14.6,14.6-6.5,14.6-14.6ZM27.8,50.8l-8.4,8.4-2.8-3.5c-.6-.8-1.7-.9-2.5-.3-.8.6-.9,1.7-.3,2.5l4,5c.6.9,1.9,1,2.7.2l9.8-9.8c.7-.7.7-1.8,0-2.5-.7-.7-1.8-.7-2.5,0h0ZM11.2,30.9v6.6c3.2-1.8,7-2.9,10.9-2.9s9.8,1.7,13.6,4.6h8.6c2.6,0,4.6,2.1,4.6,4.6v23.2h13c1.8,0,3.3-1.5,3.3-3.3V30.9s-27-19.6-27-19.6L11.2,30.9ZM75,25.9L40.2.7c-1.2-.9-2.8-.9-4,0L1.4,25.9c-1.5,1.1-1.9,3.2-.8,4.7,1.1,1.5,3.2,1.9,4.8.8L38.2,7.6l32.8,23.8c1.5,1.1,3.6.8,4.8-.8,1.1-1.5.8-3.6-.8-4.7h0Z"/>
</svg>